<svg width="36" height="34" viewBox="0 0 36 34" fill="none" xmlns="http://www.w3.org/2000/svg">
<g clip-path="url(#clip0_442_581)">
<path d="M0.48348 32.3087L7.07649 25.6835C7.40372 25.3546 7.17171 24.792 6.70902 24.792H4.46061C4.30101 24.792 4.20646 24.6114 4.29766 24.4793L13.1176 11.6777C13.4388 11.2114 13.8807 10.8421 14.395 10.6096L22.0757 7.13666L14.9489 1.67653H20.7352C20.7352 1.67653 24.1927 -1.44336 29.5559 1.39284C33.6617 3.56463 33.0522 6.7337 32.5412 8.10025C32.381 8.52949 32.4816 9.01263 32.8041 9.33675L35.4039 11.9492C35.8109 12.3583 35.9155 12.9809 35.6647 13.5011L32.1516 20.7914C30.8326 23.5285 28.6754 25.769 25.9958 27.1834L13.4677 33.7979H0.201172L0.48348 32.3087Z" fill="black" stroke="black" stroke-width="0.57726" stroke-linecap="round"/>
<path d="M23.7139 4.19334C24.449 4.19334 25.045 3.59449 25.045 2.85576C25.045 2.11704 24.449 1.51819 23.7139 1.51819C22.9788 1.51819 22.3828 2.11704 22.3828 2.85576C22.3828 3.59449 22.9788 4.19334 23.7139 4.19334Z" fill="white"/>
<path d="M21.1268 29.3545L23.0494 34H24.2712L22.6323 28.4091L21.1268 29.3545Z" fill="black" stroke="black" stroke-width="0.57726" stroke-linecap="round"/>
<path d="M23.9808 27.085L26.7101 34H27.9794L25.4863 26.1396L23.9808 27.085Z" fill="black" stroke="black" stroke-width="0.57726" stroke-linecap="round"/>
</g>
<defs>
<clipPath id="clip0_442_581">
<rect width="36" height="34" fill="white"/>
</clipPath>
</defs>
</svg>
